<svg width="24" height="24" viewBox="0 0 24 24" fill="none" xmlns="http://www.w3.org/2000/svg">
<rect width="24" height="24" fill="#D9D9D9"/>
<path d="M6.116 16V7.24H7.196V10.984H10.004V7.24H11.084V16H10.004V11.968H7.196V16H6.116ZM13.2153 16V15.016H15.5553V10.384H13.5153V9.4H16.6353V15.016H18.8553V16H13.2153ZM15.9753 8.212C15.7113 8.212 15.5033 8.144 15.3513 8.008C15.1993 7.872 15.1233 7.688 15.1233 7.456C15.1233 7.216 15.1993 7.028 15.3513 6.892C15.5033 6.748 15.7113 6.676 15.9753 6.676C16.2393 6.676 16.4473 6.748 16.5993 6.892C16.7513 7.028 16.8273 7.216 16.8273 7.456C16.8273 7.688 16.7513 7.872 16.5993 8.008C16.4473 8.144 16.2393 8.212 15.9753 8.212Z" fill="black"/>
</svg>
