<svg width="85" height="10" viewBox="0 0 85 10" fill="none" xmlns="http://www.w3.org/2000/svg">
<path d="M0.116 9V0.24H1.196V3.984H4.004V0.24H5.084V9H4.004V4.968H1.196V9H0.116ZM9.21931 9.12C8.52331 9.12 7.97531 8.944 7.57531 8.592C7.17531 8.232 6.97531 7.748 6.97531 7.14C6.97531 6.524 7.17531 6.04 7.57531 5.688C7.97531 5.336 8.51531 5.16 9.19531 5.16H11.2353V4.5C11.2353 4.092 11.1113 3.78 10.8633 3.564C10.6233 3.34 10.2793 3.228 9.83131 3.228C9.43931 3.228 9.11131 3.312 8.84731 3.48C8.58331 3.64 8.43131 3.86 8.39131 4.14H7.31131C7.38331 3.572 7.65131 3.12 8.11531 2.784C8.57931 2.448 9.15931 2.28 9.85531 2.28C10.6153 2.28 11.2153 2.476 11.6553 2.868C12.0953 3.26 12.3153 3.792 12.3153 4.464V9H11.2593V7.74H11.0793L11.2593 7.56C11.2593 8.04 11.0713 8.42 10.6953 8.7C10.3273 8.98 9.83531 9.12 9.21931 9.12ZM9.48331 8.268C9.99531 8.268 10.4153 8.14 10.7433 7.884C11.0713 7.628 11.2353 7.3 11.2353 6.9V5.964H9.21931C8.85931 5.964 8.57531 6.064 8.36731 6.264C8.15931 6.464 8.05531 6.736 8.05531 7.08C8.05531 7.448 8.17931 7.74 8.42731 7.956C8.68331 8.164 9.03531 8.268 9.48331 8.268ZM17.0386 9.12C16.5106 9.12 16.0466 9.02 15.6466 8.82C15.2546 8.62 14.9506 8.332 14.7346 7.956C14.5186 7.572 14.4106 7.12 14.4106 6.6V4.8C14.4106 4.272 14.5186 3.82 14.7346 3.444C14.9506 3.068 15.2546 2.78 15.6466 2.58C16.0466 2.38 16.5106 2.28 17.0386 2.28C17.7986 2.28 18.4106 2.484 18.8746 2.892C19.3386 3.3 19.5826 3.856 19.6066 4.56H18.5266C18.5026 4.136 18.3586 3.812 18.0946 3.588C17.8386 3.356 17.4866 3.24 17.0386 3.24C16.5666 3.24 16.1906 3.376 15.9106 3.648C15.6306 3.912 15.4906 4.292 15.4906 4.788V6.6C15.4906 7.096 15.6306 7.48 15.9106 7.752C16.1906 8.024 16.5666 8.16 17.0386 8.16C17.4866 8.16 17.8386 8.044 18.0946 7.812C18.3586 7.58 18.5026 7.256 18.5266 6.84H19.6066C19.5826 7.544 19.3386 8.1 18.8746 8.508C18.4106 8.916 17.7986 9.12 17.0386 9.12ZM21.7259 9V0.24H22.8059V5.124H24.0779L25.9979 2.4H27.2339L25.0139 5.544L27.2699 9H26.0099L24.0899 6.06H22.8059V9H21.7259ZM31.3813 9.12C30.8613 9.12 30.4053 9.016 30.0133 8.808C29.6293 8.6 29.3293 8.308 29.1133 7.932C28.9053 7.548 28.8013 7.104 28.8013 6.6V4.8C28.8013 4.288 28.9053 3.844 29.1133 3.468C29.3293 3.092 29.6293 2.8 30.0133 2.592C30.4053 2.384 30.8613 2.28 31.3813 2.28C31.9013 2.28 32.3533 2.384 32.7373 2.592C33.1293 2.8 33.4293 3.092 33.6373 3.468C33.8533 3.844 33.9613 4.288 33.9613 4.8V5.964H29.8573V6.6C29.8573 7.12 29.9893 7.52 30.2533 7.8C30.5173 8.072 30.8933 8.208 31.3813 8.208C31.7973 8.208 32.1333 8.136 32.3893 7.992C32.6453 7.84 32.8013 7.616 32.8573 7.32H33.9373C33.8653 7.872 33.5933 8.312 33.1213 8.64C32.6573 8.96 32.0773 9.12 31.3813 9.12ZM32.9053 5.244V4.8C32.9053 4.28 32.7733 3.88 32.5093 3.6C32.2533 3.32 31.8773 3.18 31.3813 3.18C30.8933 3.18 30.5173 3.32 30.2533 3.6C29.9893 3.88 29.8573 4.28 29.8573 4.8V5.148H32.9893L32.9053 5.244ZM38.1926 9.12C37.5366 9.12 37.0046 8.9 36.5966 8.46C36.1966 8.02 35.9966 7.424 35.9966 6.672V4.74C35.9966 3.98 36.1966 3.38 36.5966 2.94C36.9966 2.5 37.5286 2.28 38.1926 2.28C38.7366 2.28 39.1726 2.428 39.5006 2.724C39.8286 3.02 39.9926 3.416 39.9926 3.912L39.7766 3.66H40.0166L39.9926 2.16V0.24H41.0726V9H39.9926V7.74H39.7766L39.9926 7.488C39.9926 7.992 39.8286 8.392 39.5006 8.688C39.1726 8.976 38.7366 9.12 38.1926 9.12ZM38.5526 8.184C39.0006 8.184 39.3526 8.044 39.6086 7.764C39.8646 7.484 39.9926 7.096 39.9926 6.6V4.8C39.9926 4.304 39.8646 3.916 39.6086 3.636C39.3526 3.356 39.0006 3.216 38.5526 3.216C38.0966 3.216 37.7366 3.352 37.4726 3.624C37.2086 3.896 37.0766 4.288 37.0766 4.8V6.6C37.0766 7.112 37.2086 7.504 37.4726 7.776C37.7366 8.048 38.0966 8.184 38.5526 8.184ZM50.6272 9V8.016H52.4152V1.224H50.6272V0.24H55.3072V1.224H53.5192V8.016H55.3072V9H50.6272ZM59.7785 9.12C59.1225 9.12 58.5905 8.9 58.1825 8.46C57.7825 8.02 57.5825 7.424 57.5825 6.672V4.74C57.5825 3.98 57.7825 3.38 58.1825 2.94C58.5825 2.5 59.1145 2.28 59.7785 2.28C60.3225 2.28 60.7585 2.428 61.0865 2.724C61.4145 3.02 61.5785 3.416 61.5785 3.912L61.3625 3.66H61.6025L61.5785 2.16V0.24H62.6585V9H61.5785V7.74H61.3625L61.5785 7.488C61.5785 7.992 61.4145 8.392 61.0865 8.688C60.7585 8.976 60.3225 9.12 59.7785 9.12ZM60.1385 8.184C60.5865 8.184 60.9385 8.044 61.1945 7.764C61.4505 7.484 61.5785 7.096 61.5785 6.6V4.8C61.5785 4.304 61.4505 3.916 61.1945 3.636C60.9385 3.356 60.5865 3.216 60.1385 3.216C59.6825 3.216 59.3225 3.352 59.0585 3.624C58.7945 3.896 58.6625 4.288 58.6625 4.8V6.6C58.6625 7.112 58.7945 7.504 59.0585 7.776C59.3225 8.048 59.6825 8.184 60.1385 8.184ZM67.3578 9.12C66.8378 9.12 66.3818 9.016 65.9898 8.808C65.6058 8.6 65.3058 8.308 65.0898 7.932C64.8818 7.548 64.7778 7.104 64.7778 6.6V4.8C64.7778 4.288 64.8818 3.844 65.0898 3.468C65.3058 3.092 65.6058 2.8 65.9898 2.592C66.3818 2.384 66.8378 2.28 67.3578 2.28C67.8778 2.28 68.3298 2.384 68.7138 2.592C69.1058 2.8 69.4058 3.092 69.6138 3.468C69.8298 3.844 69.9378 4.288 69.9378 4.8V5.964H65.8338V6.6C65.8338 7.12 65.9658 7.52 66.2298 7.8C66.4938 8.072 66.8698 8.208 67.3578 8.208C67.7738 8.208 68.1098 8.136 68.3658 7.992C68.6218 7.84 68.7778 7.616 68.8338 7.32H69.9138C69.8418 7.872 69.5698 8.312 69.0978 8.64C68.6338 8.96 68.0538 9.12 67.3578 9.12ZM68.8818 5.244V4.8C68.8818 4.28 68.7498 3.88 68.4858 3.6C68.2298 3.32 67.8538 3.18 67.3578 3.18C66.8698 3.18 66.4938 3.32 66.2298 3.6C65.9658 3.88 65.8338 4.28 65.8338 4.8V5.148H68.9658L68.8818 5.244ZM73.9771 9.12C73.2811 9.12 72.7331 8.944 72.3331 8.592C71.9331 8.232 71.7331 7.748 71.7331 7.14C71.7331 6.524 71.9331 6.04 72.3331 5.688C72.7331 5.336 73.2731 5.16 73.9531 5.16H75.9931V4.5C75.9931 4.092 75.8691 3.78 75.6211 3.564C75.3811 3.34 75.0371 3.228 74.5891 3.228C74.1971 3.228 73.8691 3.312 73.6051 3.48C73.3411 3.64 73.1891 3.86 73.1491 4.14H72.0691C72.1411 3.572 72.4091 3.12 72.8731 2.784C73.3371 2.448 73.9171 2.28 74.6131 2.28C75.3731 2.28 75.9731 2.476 76.4131 2.868C76.8531 3.26 77.0731 3.792 77.0731 4.464V9H76.0171V7.74H75.8371L76.0171 7.56C76.0171 8.04 75.8291 8.42 75.4531 8.7C75.0851 8.98 74.5931 9.12 73.9771 9.12ZM74.2411 8.268C74.7531 8.268 75.1731 8.14 75.5011 7.884C75.8291 7.628 75.9931 7.3 75.9931 6.9V5.964H73.9771C73.6171 5.964 73.3331 6.064 73.1251 6.264C72.9171 6.464 72.8131 6.736 72.8131 7.08C72.8131 7.448 72.9371 7.74 73.1851 7.956C73.4411 8.164 73.7931 8.268 74.2411 8.268ZM81.5444 9.096C81.0964 9.096 80.7044 9.028 80.3684 8.892C80.0404 8.748 79.7764 8.548 79.5764 8.292C79.3844 8.036 79.2684 7.732 79.2284 7.38H80.3084C80.3564 7.612 80.4844 7.796 80.6924 7.932C80.9084 8.068 81.1924 8.136 81.5444 8.136H82.0484C82.4724 8.136 82.7884 8.052 82.9964 7.884C83.2044 7.708 83.3084 7.476 83.3084 7.188C83.3084 6.908 83.2124 6.688 83.0204 6.528C82.8364 6.36 82.5604 6.248 82.1924 6.192L81.3044 6.048C80.6564 5.936 80.1724 5.736 79.8524 5.448C79.5404 5.152 79.3844 4.724 79.3844 4.164C79.3844 3.572 79.5724 3.116 79.9484 2.796C80.3244 2.468 80.8884 2.304 81.6404 2.304H82.0964C82.7284 2.304 83.2364 2.452 83.6204 2.748C84.0044 3.044 84.2364 3.444 84.3164 3.948H83.2364C83.1884 3.74 83.0684 3.576 82.8764 3.456C82.6844 3.328 82.4244 3.264 82.0964 3.264H81.6404C81.2324 3.264 80.9324 3.34 80.7404 3.492C80.5564 3.644 80.4644 3.872 80.4644 4.176C80.4644 4.448 80.5444 4.648 80.7044 4.776C80.8644 4.904 81.1164 4.996 81.4604 5.052L82.3484 5.196C83.0604 5.308 83.5764 5.516 83.8964 5.82C84.2244 6.124 84.3884 6.564 84.3884 7.14C84.3884 7.748 84.1924 8.228 83.8004 8.58C83.4164 8.924 82.8324 9.096 82.0484 9.096H81.5444Z" fill="black"/>
</svg>
